<svg id="Layer_1" enable-background="new 0 0 128 128" height="512" viewBox="0 0 128 128" width="512" xmlns="http://www.w3.org/2000/svg"><g><g><circle cx="65.5" cy="65.5" fill="#e6e7e8" r="58.5"/></g><g><g><circle cx="61.5" cy="61.5" fill="#0089ef" r="57.5"/></g><g><path d="m61.5 7c31.253 0 56.664 24.939 57.462 56 .013-.5.038-.997.038-1.5 0-31.756-25.744-57.5-57.5-57.5s-57.5 25.744-57.5 57.5c0 .503.025 1 .038 1.5.798-31.061 26.209-56 57.462-56z" fill="#fff"/></g><g fill="#6dc9f7"><path d="m66.504 44.262c.013-.278.042-.551.042-.831 0-9.787-7.934-17.72-17.72-17.72-7.996 0-14.749 5.298-16.955 12.573-.377-.029-.755-.058-1.14-.058-8.008 0-14.5 6.492-14.5 14.5s6.492 14.5 14.5 14.5h34.942c6.353 0 11.503-5.15 11.503-11.503-.001-6.072-4.709-11.033-10.672-11.461z"/><path d="m51.21 74.733c.009-.191.029-.38.029-.573 0-6.744-5.467-12.212-12.212-12.212-5.51 0-10.164 3.651-11.685 8.665-.26-.02-.521-.04-.786-.04-5.519 0-9.993 4.474-9.993 9.993s4.474 9.993 9.993 9.993h24.08c4.378 0 7.927-3.549 7.927-7.927.001-4.185-3.243-7.604-7.353-7.899z"/></g><path d="m77.419 16.836 1.009 4.17c.667 2.754 2.817 4.905 5.572 5.572l4.17 1.009-4.17 1.01c-2.755.667-4.905 2.817-5.572 5.572l-1.009 4.17-1.009-4.17c-.667-2.754-2.817-4.905-5.572-5.572l-4.17-1.009 4.17-1.009c2.754-.667 4.905-2.817 5.572-5.572z" fill="#d4fbff"/><g><path d="m59.882 92.857.803 3.317c.53 2.191 2.241 3.902 4.432 4.432l3.317.803-3.317.803c-2.191.53-3.902 2.241-4.432 4.432l-.803 3.317-.803-3.317c-.53-2.191-2.241-3.902-4.432-4.432l-3.317-.803 3.317-.803c2.191-.53 3.902-2.241 4.432-4.432z" fill="#d4fbff"/><g fill="#3a2c60"><path d="m115.124 82.322c-.511-.207-1.094.037-1.304.547-1.008 2.465-2.204 4.882-3.554 7.184-.28.476-.12 1.089.356 1.368.159.093.333.138.505.138.343 0 .677-.177.863-.494 1.398-2.383 2.637-4.886 3.681-7.439.209-.511-.036-1.094-.547-1.304z"/><path d="m61.5 3c-32.257 0-58.5 26.243-58.5 58.5s26.243 58.5 58.5 58.5c18.998 0 36.884-9.282 47.845-24.83.318-.451.21-1.075-.241-1.394-.453-.319-1.075-.21-1.394.241-10.586 15.018-27.862 23.983-46.21 23.983-31.154 0-56.5-25.346-56.5-56.5s25.346-56.5 56.5-56.5 56.5 25.346 56.5 56.5c0 5.903-.906 11.717-2.692 17.282-.169.526.121 1.089.646 1.258s1.088-.121 1.258-.646c1.85-5.763 2.788-11.784 2.788-17.894 0-32.257-26.243-58.5-58.5-58.5z"/><path d="m100.177 56.801c4.186 0 7.592-3.406 7.592-7.592 0-3.944-3.208-7.152-7.152-7.152s-7.152 3.208-7.152 7.152v.659c0 .552.448 1 1 1s1-.448 1-1v-.659c0-2.841 2.312-5.152 5.152-5.152s5.152 2.312 5.152 5.152c0 3.083-2.508 5.592-5.592 5.592h-22.044c-.081-1.093-.307-2.147-.656-3.148h7.369c3.527 0 6.396-2.869 6.396-6.396 0-3.329-2.708-6.037-6.037-6.037s-6.037 2.708-6.037 6.037v.54c0 .552.448 1 1 1s1-.448 1-1v-.54c0-2.226 1.811-4.037 4.037-4.037s4.037 1.811 4.037 4.037c0 2.424-1.972 4.396-4.396 4.396h-8.27c-1.847-3.291-5.134-5.692-9.029-6.28-.032-10.295-8.417-18.662-18.72-18.662-8.038 0-15.039 5.001-17.665 12.525-.143-.006-.286-.01-.431-.01-8.546 0-15.5 6.953-15.5 15.5 0 7.409 5.235 13.592 12.194 15.113-.299.554-.566 1.131-.788 1.736-.026 0-.053 0-.08 0-6.062 0-10.993 4.931-10.993 10.993 0 6.061 4.931 10.992 10.993 10.992h24.08c3.947 0 7.298-2.577 8.474-6.134h13.86c1.977 0 3.585 1.608 3.585 3.585 0 1.809-1.471 3.28-3.28 3.28s-3.28-1.471-3.28-3.28v-.458c0-.552-.448-1-1-1s-1 .448-1 1v.458c0 2.911 2.369 5.28 5.28 5.28s5.28-2.369 5.28-5.28c0-3.08-2.506-5.585-5.585-5.585h-13.447c.023-.262.04-.525.04-.792 0-.504-.047-.997-.129-1.48h19.263c3.568 0 6.471-2.903 6.471-6.471 0-3.367-2.739-6.106-6.106-6.106s-6.106 2.739-6.106 6.106v.547c0 .552.448 1 1 1s1-.448 1-1v-.547c0-2.264 1.842-4.106 4.106-4.106s4.106 1.842 4.106 4.106c0 2.465-2.006 4.471-4.471 4.471h-19.855c-1.159-2.705-3.615-4.751-6.607-5.295-.046-2.024-.562-3.929-1.423-5.631h14.86c4.626 0 8.664-2.532 10.826-6.277h16.776c2.495 0 4.525 2.03 4.525 4.525 0 2.292-1.864 4.156-4.156 4.156s-4.157-1.864-4.157-4.156v-.553c0-.552-.448-1-1-1s-1 .448-1 1v.553c0 3.395 2.762 6.156 6.157 6.156s6.156-2.762 6.156-6.156c0-3.598-2.927-6.525-6.525-6.525h-15.851c.36-.998.602-2.051.696-3.148h22.057zm-43.568 22.351h-16.746c-.552 0-1 .448-1 1s.448 1 1 1h17.534c.106.478.167.972.167 1.48 0 .268-.019.532-.049.792h-14.868c-.552 0-1 .448-1 1s.448 1 1 1h14.324c-1.076 2.431-3.508 4.134-6.334 4.134h-24.08c-4.958 0-8.993-4.034-8.993-8.992s4.034-8.993 8.993-8.993c.239 0 .474.019.709.037.471.036.898-.258 1.034-.707 1.442-4.758 5.753-7.955 10.728-7.955 6.182 0 11.212 5.03 11.212 11.212 0 .101-.028.527-.028.527-.025.542.387 1.004.927 1.043 2.342.169 4.349 1.512 5.47 3.422zm18.671-19.203h-6.492c-.552 0-1 .448-1 1s.448 1 1 1h5.323c-1.915 2.588-4.979 4.277-8.439 4.277h-16.105c-2.414-3.198-6.234-5.277-10.539-5.277-4.197 0-7.994 1.932-10.436 5.088-6.429-1.029-11.361-6.597-11.361-13.311 0-7.444 6.056-13.5 13.5-13.5.359 0 .71.027 1.062.055.461.034.899-.257 1.036-.707 2.151-7.096 8.581-11.863 15.998-11.863 9.22 0 16.72 7.5 16.72 16.72 0 .156-.041.786-.041.786-.025.542.387 1.004.928 1.043 3.217.23 6.015 1.925 7.779 4.393h-12.134c-.552 0-1 .448-1 1s.448 1 1 1h13.26c.419.985.694 2.043.792 3.148h-10.697c-.552 0-1 .448-1 1s.448 1 1 1h10.686c-.114 1.11-.406 2.167-.84 3.148z"/><path d="m70.603 29.569c2.401.581 4.254 2.434 4.835 4.835l1.009 4.17c.109.449.511.765.972.765.462 0 .863-.316.972-.765l1.009-4.17c.581-2.401 2.434-4.254 4.835-4.835l4.17-1.009c.449-.109.765-.51.765-.972s-.316-.863-.765-.972l-4.17-1.009c-2.401-.581-4.254-2.434-4.835-4.835l-1.009-4.17c-.109-.449-.51-.765-.972-.765-.461 0-.863.316-.972.765l-1.009 4.17c-.582 2.401-2.435 4.254-4.835 4.835l-4.17 1.009c-.449.109-.765.51-.765.972s.316.863.765.972zm.471-2.019c3.132-.758 5.55-3.175 6.309-6.309l.037-.154.037.154c.758 3.133 3.176 5.55 6.309 6.309l.154.037-.154.037c-3.133.758-5.55 3.175-6.309 6.309l-.037.154-.038-.154c-.758-3.133-3.176-5.55-6.308-6.309l-.154-.037z"/><path d="m65.352 99.634c-1.835-.444-3.251-1.86-3.695-3.695l-.803-3.317c-.109-.449-.51-.765-.972-.765s-.863.316-.972.765l-.803 3.317c-.444 1.835-1.86 3.251-3.695 3.695l-3.317.803c-.449.109-.765.51-.765.972s.316.863.765.972l3.317.803c1.835.444 3.251 1.86 3.695 3.695l.803 3.317c.109.449.51.765.972.765s.863-.316.972-.765l.803-3.317c.444-1.835 1.86-3.251 3.695-3.695l3.317-.803c.449-.109.765-.51.765-.972s-.316-.863-.765-.972zm-5.47 6.187c-.699-2.087-2.325-3.713-4.412-4.412 2.087-.699 3.713-2.325 4.412-4.412.699 2.086 2.325 3.712 4.412 4.412-2.087.699-3.713 2.325-4.412 4.412z"/></g></g></g></g></svg>